<svg width="1024" height="1024" viewBox="0 0 1024 1024" xmlns="http://www.w3.org/2000/svg">
  <defs>
    <linearGradient id="g" x1="330" y1="280" x2="690" y2="760" gradientUnits="userSpaceOnUse">
      <stop offset="0" stop-color="#F8C64C"/><stop offset="1" stop-color="#E68A26"/>
    </linearGradient>
    <linearGradient id="a" x1="220" y1="740" x2="860" y2="230" gradientUnits="userSpaceOnUse">
      <stop offset="0" stop-color="#D8481A"/><stop offset="1" stop-color="#F5732E"/>
    </linearGradient>
  </defs>
  <!-- arrow shaft behind -->
  <path d="M 220 726 C 350 706 384 566 478 544 C 574 522 560 414 668 392 C 730 379 792 340 842 274"
        fill="none" stroke="url(#a)" stroke-width="66" stroke-linecap="round"/>
  <!-- bold confident S -->
  <path d="M 712 372 C 700 292 590 276 508 312 C 404 352 402 452 512 500 C 624 548 654 648 566 710 C 480 764 356 744 314 668"
        fill="none" stroke="url(#g)" stroke-width="122" stroke-linecap="round" stroke-linejoin="round"/>
  <!-- arrow tip in front + head -->
  <path d="M 654 400 C 732 378 794 338 842 274" fill="none" stroke="url(#a)" stroke-width="66" stroke-linecap="round"/>
  <path d="M 884 232 L 788 252 L 836 336 Z" fill="#F5732E"/>
</svg>
