<svg width="1024" height="1024" viewBox="0 0 1024 1024" xmlns="http://www.w3.org/2000/svg">
  <defs>
    <linearGradient id="badge" x1="0" y1="0" x2="1024" y2="1024" gradientUnits="userSpaceOnUse">
      <stop offset="0" stop-color="#241C13"/><stop offset="1" stop-color="#150F09"/>
    </linearGradient>
    <linearGradient id="g" x1="330" y1="270" x2="700" y2="770" gradientUnits="userSpaceOnUse">
      <stop offset="0" stop-color="#F8C64C"/><stop offset="1" stop-color="#E68A26"/>
    </linearGradient>
    <linearGradient id="a" x1="200" y1="730" x2="850" y2="235" gradientUnits="userSpaceOnUse">
      <stop offset="0" stop-color="#D8481A"/><stop offset="1" stop-color="#F5732E"/>
    </linearGradient>
    <linearGradient id="ring" x1="0" y1="0" x2="0" y2="1024" gradientUnits="userSpaceOnUse">
      <stop offset="0" stop-color="#C79233"/><stop offset="1" stop-color="#7A4E17"/>
    </linearGradient>
  </defs>

  <rect x="70" y="70" width="884" height="884" rx="212" ry="212" fill="url(#badge)"/>
  <rect x="70" y="70" width="884" height="884" rx="212" ry="212" fill="none" stroke="url(#ring)" stroke-width="14"/>
  <rect x="94" y="94" width="836" height="836" rx="190" ry="190" fill="none" stroke="#000" stroke-opacity="0.35" stroke-width="2"/>

  <g transform="translate(512 522) scale(0.66) translate(-512 -512)">
    <path d="M 208 700 C 300 664 298 590 380 560 C 470 527 470 470 542 452 C 636 428 690 356 812 258"
          fill="none" stroke="url(#a)" stroke-width="46" stroke-linecap="round" stroke-linejoin="round"/>
    <path d="M 742 262 L 812 258 L 806 330" fill="none" stroke="url(#a)" stroke-width="46" stroke-linecap="round" stroke-linejoin="round"/>
    <g transform="translate(96 0) skewX(-11)">
      <path d="M 688 374 C 674 308 588 294 518 320 C 428 354 428 442 522 486 C 620 530 646 622 566 678 C 494 728 392 716 348 658"
            fill="none" stroke="url(#g)" stroke-width="100" stroke-linecap="round" stroke-linejoin="round"/>
    </g>
    <path d="M 560 442 C 636 414 690 356 812 258" fill="none" stroke="url(#a)" stroke-width="46" stroke-linecap="round" stroke-linejoin="round"/>
    <path d="M 742 262 L 812 258 L 806 330" fill="none" stroke="url(#a)" stroke-width="46" stroke-linecap="round" stroke-linejoin="round"/>
  </g>
</svg>
